HIERARCHY
ROOT Hips
{
	OFFSET 0.00000 0.00000 0.00000
	CHANNELS 6 Xposition Yposition Zposition Zrotation Yrotation Xrotation 
	JOINT LHipJoint
	{
		OFFSET 0 0 0
		CHANNELS 3 Zrotation Yrotation Xrotation
		JOINT LeftHip
		{
			OFFSET 1.42489 -1.84941 0.69647
			CHANNELS 3 Zrotation Yrotation Xrotation
			JOINT LeftKnee
			{
				OFFSET 2.44443 -6.71602 0.00000
				CHANNELS 3 Zrotation Yrotation Xrotation
				JOINT LeftAnkle
				{
					OFFSET 2.62838 -7.22137 0.00000
					CHANNELS 3 Zrotation Yrotation Xrotation
					JOINT LeftToe
					{
						OFFSET 0.24036 -0.66037 2.29953
						CHANNELS 3 Zrotation Yrotation Xrotation
						End Site
						{
							OFFSET 0.00000 -0.00000 1.19837
						}
					}
				}
			}
		}
	}
	JOINT RHipJoint
	{
		OFFSET 0 0 0
		CHANNELS 3 Zrotation Yrotation Xrotation
		JOINT RightHip
		{
			OFFSET -1.37055 -1.84941 0.69647
			CHANNELS 3 Zrotation Yrotation Xrotation
			JOINT RightKnee
			{
				OFFSET -2.54834 -7.00152 0.00000
				CHANNELS 3 Zrotation Yrotation Xrotation
				JOINT RightAnkle
				{
					OFFSET -2.65692 -7.29983 0.00000
					CHANNELS 3 Zrotation Yrotation Xrotation
					JOINT RightToe
					{
						OFFSET -0.18839 -0.51760 2.29390
						CHANNELS 3 Zrotation Yrotation Xrotation
						End Site
						{
							OFFSET -0.00000 -0.00000 1.18261
						}
					}
				}
			}
		}
	}
	JOINT lowerback
	{
		OFFSET 0 0 0
		CHANNELS 3 Zrotation Yrotation Xrotation
		JOINT Chest
		{
			OFFSET 0.05220 2.15489 0.05011
			CHANNELS 3 Zrotation Yrotation Xrotation
			JOINT Chest2
			{
				OFFSET -0.07653 2.14219 -0.05668
				CHANNELS 3 Zrotation Yrotation Xrotation
				JOINT lowerneck
				{
					OFFSET 0 0 0
					CHANNELS 3 Zrotation Yrotation Xrotation
					JOINT Neck
					{
						OFFSET 0.01370 1.58638 0.01447
						CHANNELS 3 Zrotation Yrotation Xrotation
						JOINT Head
						{
							OFFSET 0.23548 1.54190 -0.21747
							CHANNELS 3 Zrotation Yrotation Xrotation
							End Site
							{
								OFFSET 0.07132 1.59823 -0.08163
							}
						}
					}
				}
				JOINT LeftCollar
				{
					OFFSET 0 0 0
					CHANNELS 3 Zrotation Yrotation Xrotation
					JOINT LeftShoulder
					{
						OFFSET 3.47056 1.45357 -0.58896
CHANNELS 3 Zrotation Xrotation Yrotation
						JOINT LeftElbow
						{
OFFSET 0 -5.190690 0.000000
CHANNELS 3 Zrotation Xrotation Yrotation
							JOINT LeftWrist
							{
OFFSET 0 -3.300160 0.000000
CHANNELS 3 Zrotation Xrotation Yrotation
								JOINT lhand
								{
									OFFSET 0 0 0
CHANNELS 3 Zrotation Xrotation Yrotation
									JOINT LFingers
									{
OFFSET 0 -0.707700 0.000000
CHANNELS 3 Zrotation Xrotation Yrotation
										End Site
										{
OFFSET 0 -0.570560 0.000000
										}
									}
								}
								JOINT LThumb
								{
OFFSET 0 0.000000 0.000000
CHANNELS 3 Zrotation Xrotation Yrotation
									End Site
									{
OFFSET 0 -0.579280 0.579280
									}
								}
							}
						}
					}
				}
				JOINT RightCollar
				{
					OFFSET 0 0 0
					CHANNELS 3 Zrotation Yrotation Xrotation
					JOINT RightShoulder
					{
						OFFSET -2.89018 2.03305 -0.26731
CHANNELS 3 Zrotation Xrotation Yrotation
						JOINT RightElbow
						{
OFFSET 0 -5.239240 0.000000
CHANNELS 3 Zrotation Xrotation Yrotation
							JOINT RightWrist
							{
OFFSET 0 -3.329530 0.000000
CHANNELS 3 Zrotation Xrotation Yrotation
								JOINT rhand
								{
									OFFSET 0 0 0
CHANNELS 3 Zrotation Xrotation Yrotation
									JOINT RFingers
									{
OFFSET 0 -0.607410 0.000000
CHANNELS 3 Zrotation Xrotation Yrotation
										End Site
										{
OFFSET 0 -0.489710 0.000000
										}
									}
								}
								JOINT RThumb
								{
OFFSET 0 0.000000 0.000000
CHANNELS 3 Zrotation Xrotation Yrotation
									End Site
									{
OFFSET 0 -0.497190 0.497190
									}
								}
							}
						}
					}
				}
			}
		}
	}
}
MOTION
Frames: 7
Frame Time: 0.008333333333333333
3.794000 17.844000 -27.897700 -2.785200 -0.348700 3.670700 0.000000 0.000000 0.000000 -17.196200 1.989800 -4.284000 1.101300 6.668100 18.735900 1.131200 -2.069200 -19.521800 0.240100 -3.153500 -8.706500 0.000000 0.000000 0.000000 23.671900 0.163500 -8.916600 -2.319300 -9.501800 27.377900 -1.519700 1.810700 -22.797800 -0.069400 1.700000 -4.677300 3.152700 0.061100 -6.850400 -0.741800 -0.156700 1.339200 -2.562700 0.031300 5.231300 -7.726800 -7.395900 -7.127700 13.172200 -10.437600 7.637700 4.616500 -4.756800 4.567700 -0.000000 0.000000 0.000000 5.330600 0.028200 -31.215500 11.616900 -19.227600 1.974300 5.337300 -1.480400 3.181300 0.000000 0.000000 0.000000 -7.125000 0.000000 0.000000 -16.073000 26.686100 -7.418700 -0.000000 0.000000 0.000000 1.535200 -2.340000 25.579800 -11.842700 -19.568200 -2.049300 -11.833300 3.585300 9.284300 0.000000 0.000000 0.000000 7.125000 0.000000 -0.000000 13.075700 39.136500 1.927700
3.795208 17.847700 -27.894524 -2.794892 -0.506611 3.851227 0.000000 0.000000 0.000000 -17.226336 1.883105 -4.427815 1.100484 6.665852 18.729248 1.147608 -1.800286 -19.732269 0.266387 -3.320345 -9.172035 0.000000 0.000000 0.000000 23.659520 0.423865 -9.086756 -2.322192 -9.507192 27.395076 -1.525360 1.686307 -22.873424 -0.102823 2.067326 -5.691859 3.106469 0.026905 -6.896940 -0.719952 -0.201239 1.365713 -2.519237 0.008816 5.282506 -7.687278 -7.294049 -7.130884 12.955392 -10.288893 7.744394 4.555068 -4.690388 4.569860 0.000000 0.000000 0.000000 5.210637 0.079612 -31.119881 11.594287 -19.193419 1.966896 5.235513 -1.426663 3.057650 0.000000 0.000000 0.000000 -7.125000 0.000000 0.000000 -16.165215 26.804618 -7.417607 0.000000 0.000000 0.000000 1.517228 -2.264832 25.589000 -11.832972 -19.553609 -2.045996 -11.905056 3.593439 9.318045 0.000000 0.000000 0.000000 7.125000 0.000000 0.000000 13.022208 39.175437 1.906728
3.798704 17.844116 -27.882688 -2.822966 -0.675006 3.866592 0.000000 0.000000 0.000000 -17.218865 1.862575 -4.368122 1.103452 6.674624 18.754835 1.244767 -1.837362 -20.565956 0.413194 -4.126119 -11.431766 0.000000 0.000000 0.000000 23.648240 0.547348 -9.029146 -2.324828 -9.512324 27.411321 -1.619215 1.735829 -23.573521 -0.230679 3.091224 -8.532866 3.165148 0.027234 -6.870201 -0.740108 -0.204978 1.432243 -2.573942 0.011019 5.336716 -7.714066 -7.206356 -7.146769 12.819723 -10.177601 8.007677 4.524862 -4.635925 4.633875 0.000000 0.000000 0.000000 5.211803 0.087878 -31.120006 11.605009 -19.209614 1.970392 5.338344 -1.433312 3.042146 0.000000 0.000000 0.000000 -7.125000 0.000000 0.000000 -16.091216 26.820302 -7.374729 0.000000 0.000000 0.000000 1.548528 -2.167792 25.447071 -11.791305 -19.490949 -2.032096 -11.909620 3.696328 9.262797 0.000000 0.000000 0.000000 7.125000 0.000000 0.000000 13.006476 39.120997 1.922172
3.806404 17.845000 -27.853685 -2.821361 -0.861475 3.936249 0.000000 0.000000 0.000000 -17.308966 1.906637 -4.271602 1.091824 6.640348 18.654296 1.163233 -1.423759 -19.966947 0.269051 -3.336447 -9.216885 0.000000 0.000000 0.000000 23.624536 0.590011 -9.008796 -2.327240 -9.516705 27.425539 -1.535150 1.655413 -22.956923 -0.119147 2.225030 -6.127883 3.180007 0.022730 -6.922288 -0.733662 -0.213621 1.382566 -2.576713 0.005993 5.313746 -7.697054 -7.160219 -7.158762 12.745353 -10.122015 8.146422 4.502659 -4.607936 4.666906 0.000000 0.000000 0.000000 5.230151 0.224685 -31.066279 11.610502 -19.217927 1.972209 5.308297 -1.403320 3.073755 0.000000 0.000000 0.000000 -7.125000 0.000000 0.000000 -16.109104 26.789617 -7.395775 0.000000 0.000000 0.000000 1.502609 -2.075715 25.490149 -11.841330 -19.566157 -2.048843 -11.895417 3.602210 9.322582 0.000000 0.000000 0.000000 7.125000 0.000000 0.000000 13.031390 39.179254 1.906888
3.816340 17.847136 -27.820321 -2.816279 -1.068242 4.207114 0.000000 0.000000 0.000000 -17.380923 2.051128 -4.367472 1.074964 6.590492 18.507645 1.162068 -1.396554 -19.963751 0.248136 -3.205279 -8.850870 0.000000 0.000000 0.000000 23.550600 0.505549 -9.181388 -2.319800 -9.502600 27.380604 -1.517600 1.920401 -22.754479 -0.088096 1.914182 -5.268490 3.156944 0.038964 -7.404161 -0.706488 -0.207340 1.390155 -2.538128 0.013196 5.596254 -7.679985 -7.169215 -7.257928 12.742781 -10.122083 8.063747 4.496221 -4.605972 4.657787 0.000000 0.000000 0.000000 5.266828 -0.020238 -30.963947 11.610615 -19.218123 1.972272 5.281564 -1.405628 3.049417 0.000000 0.000000 0.000000 -7.125000 0.000000 0.000000 -16.132237 26.812939 -7.397966 0.000000 0.000000 0.000000 1.538833 -2.345133 25.569859 -11.837840 -19.560944 -2.047636 -11.895388 3.539780 9.295323 0.000000 0.000000 0.000000 7.125000 0.000000 0.000000 13.025547 39.152187 1.914896
3.820400 17.845240 -27.803061 -2.829779 -1.052603 4.277540 0.000000 0.000000 0.000000 -17.379062 2.076498 -4.410982 1.078440 6.601020 18.538521 1.170780 -1.450198 -20.025719 0.241660 -3.163518 -8.734273 0.000000 0.000000 0.000000 23.569238 0.575120 -9.160104 -2.317900 -9.498980 27.369100 -1.523720 1.818844 -22.827175 -0.088620 1.920322 -5.285425 3.142299 0.013020 -7.438996 -0.662220 -0.242220 1.240042 -2.487160 -0.009780 5.456040 -7.724343 -7.143858 -7.000995 12.703461 -10.086097 8.011990 4.503101 -4.602619 4.594556 0.000000 0.000000 0.000000 5.364113 0.001442 -31.001954 11.689318 -19.337057 1.998239 5.302999 -1.452294 3.035743 0.000000 0.000000 0.000000 -7.125000 0.000000 0.000000 -16.118261 26.826297 -7.385741 0.000000 0.000000 0.000000 1.534999 -2.183204 25.600067 -11.875341 -19.617381 -2.060260 -11.816859 3.465855 9.371460 0.000000 0.000000 0.000000 7.125000 0.000000 0.000000 13.108781 39.221760 1.904720
3.822944 17.841700 -27.786748 -2.838639 -1.062170 4.211204 0.000000 0.000000 0.000000 -17.385148 2.093196 -4.263900 1.077644 6.598533 18.531298 1.180085 -1.437154 -20.111071 0.237415 -3.135752 -8.656936 0.000000 0.000000 0.000000 23.568448 0.532583 -9.041404 -2.318760 -9.500615 27.374350 -1.529912 1.811412 -22.876642 -0.091248 1.948025 -5.362079 3.186798 0.049796 -7.411873 -0.676392 -0.196019 1.266721 -2.521467 0.015331 5.471685 -7.736746 -7.159218 -7.057189 12.885946 -10.102279 7.807750 4.560031 -4.605131 4.554958 0.000000 0.000000 0.000000 5.468385 -0.051279 -31.049525 11.681865 -19.325850 1.995788 5.238844 -1.458148 3.036862 0.000000 0.000000 0.000000 -7.125000 0.000000 0.000000 -16.165660 26.824786 -7.409792 0.000000 0.000000 0.000000 1.525577 -2.190745 25.472019 -11.844817 -19.571502 -2.049988 -11.865771 3.553359 9.377814 0.000000 0.000000 0.000000 7.125000 0.000000 0.000000 13.068641 39.231821 1.895344
